<svg width="16" height="16" xmlns="http://www.w3.org/2000/svg" xml:space="preserve" version="1.1">

 <g>
  <title>Layer 1</title>
  <g id="svg_1">
   <path id="svg_2" d="m12.87166,2.40547c0.05784,0.03679 0.06891,0.12558 0.02461,0.19915c-0.0443,0.07357 -0.12552,0.10275 -0.18336,0.06723c-0.05784,-0.03679 -0.06891,-0.12558 -0.02461,-0.19915c0.04307,-0.07357 0.12552,-0.10402 0.18336,-0.06723l0,0zm-4.97531,1.04016l0.25596,0.57462l0.02461,-0.0482l0.01846,-0.03805c0.00246,-0.00381 0.00369,-0.00761 0.00615,-0.01142c0.15013,-0.27146 0.27812,-0.49344 0.44302,-0.63171c0.19813,-0.16617 0.41963,-0.20549 0.7199,-0.06089c0.23381,0.1129 0.42702,0.28541 0.5833,0.48837c0.17598,0.23086 0.30519,0.50105 0.39379,0.77124c0.07261,0.22325 0.11814,0.45539 0.1329,0.68625c0.01231,0.18393 0.00492,0.36786 -0.02215,0.54672c0.06645,-0.06596 0.13537,-0.12939 0.2092,-0.19027c0.60176,-0.49598 1.44103,-0.7928 2.20523,-0.53403c0.20551,0.06977 0.40487,0.17251 0.58946,0.3019c0.18705,0.13065 0.3581,0.28795 0.50824,0.46427c0.18336,0.21564 0.34457,0.4668 0.44794,0.73953c0.09229,0.24101 0.13783,0.49978 0.11445,0.76617c-0.02953,0.34122 -0.17475,0.51754 -0.41348,0.61014c-0.1969,0.07611 -0.44671,0.07865 -0.74944,0.07484c-0.00492,0 -0.01108,0 -0.016,0l-0.02707,-0.00127c-0.35195,-0.01903 -0.70267,-0.03805 -1.0374,-0.03552c-0.12306,0.00127 -0.24735,0.00254 -0.37287,0.00507c-0.00123,0.02537 -0.00369,0.05074 -0.00615,0.07611c-0.00492,0.04947 -0.00984,0.09894 -0.00492,0.12558c0.00492,0.02918 0.08368,0.03552 0.4184,-0.02791c0.06768,-0.01268 0.13414,0.01395 0.17475,0.06469l0,0l0.34949,0.42367c0.05784,0.07104 0.05784,0.17251 0.00369,0.24355c-0.99925,1.29385 -2.08094,2.5319 -3.22171,3.70778c-1.1986,1.2355 -2.46735,2.40758 -3.77917,3.50736c-0.07014,0.05962 -0.16982,0.05581 -0.23751,-0.00254l0,0l-0.41102,-0.36025c-0.05538,-0.0482 -0.0763,-0.12177 -0.06153,-0.19027c0.0603,-0.33742 0.05292,-0.41733 0.02584,-0.42241c-0.02584,-0.00507 -0.07384,0 -0.12183,0.00507c-0.06768,0.00761 -0.1366,0.01395 -0.21166,0.00381c-0.22889,-0.03044 -0.40733,-0.17505 -0.37656,-0.72557l-0.06645,0c-0.3138,0.00254 -0.47501,0.00381 -0.59069,-0.12051c-0.12429,-0.13573 -0.10091,-0.3057 -0.04799,-0.65454c-0.05169,-0.00381 -0.09968,-0.00761 -0.14275,-0.01015c-0.26212,-0.01776 -0.39625,-0.02791 -0.49962,-0.14207c-0.10829,-0.12051 -0.10214,-0.26511 -0.0886,-0.55813c0.00123,-0.02918 0.00246,-0.05962 0.00369,-0.09133c-0.05907,0.00254 -0.11322,0.00634 -0.16121,0.01015c-0.26089,0.01649 -0.39625,0.02537 -0.50578,-0.08245c-0.1206,-0.11797 -0.10583,-0.26638 -0.0763,-0.57716l0.00615,-0.06977c-0.05538,0 -0.10583,0.00127 -0.15013,0.00254c-0.22151,0.00381 -0.34088,0.00634 -0.4504,-0.07865c-0.13044,-0.10021 -0.15013,-0.24228 -0.19443,-0.54925l-0.01231,-0.08499l-0.86511,-0.40972c-0.09353,-0.0444 -0.13414,-0.15729 -0.09229,-0.2537c0.00615,-0.01395 0.01477,-0.02791 0.02338,-0.03932l0,0c1.04601,-1.35221 2.14863,-2.64099 3.32139,-3.85746c1.17399,-1.21775 2.41813,-2.36319 3.74471,-3.42618c0.08122,-0.06469 0.19813,-0.04947 0.26089,0.03425c0.01354,0.01649 0.02338,0.03425 0.02953,0.05201l0,0zm0.51316,0.89682c0.2695,0.04059 0.39994,0.06596 0.49347,0.19408c0.08245,0.1129 0.07999,0.23594 0.0763,0.46427c-0.00123,0.04567 -0.00123,0.09767 -0.00246,0.15476l0.06768,-0.00634c0.30027,-0.03044 0.44548,-0.04567 0.55992,0.07865c0.1046,0.1129 0.09599,0.25243 0.07999,0.52135c-0.00246,0.05074 -0.00615,0.10655 -0.00984,0.16617c0.03076,-0.00127 0.0603,-0.00254 0.0886,-0.00381c0.10829,-0.00507 0.19567,-0.01015 0.26827,-0.00634c0.01231,-0.04313 0.02461,-0.08626 0.03323,-0.13065c0.03815,-0.1852 0.05045,-0.37801 0.03815,-0.57209c-0.01354,-0.20042 -0.05169,-0.39957 -0.11322,-0.58985c-0.0763,-0.2334 -0.18459,-0.463 -0.33226,-0.65581c-0.12183,-0.15983 -0.27073,-0.29302 -0.44917,-0.37928c-0.14644,-0.07104 -0.24612,-0.05835 -0.32857,0.01142c-0.11322,0.09514 -0.22274,0.28668 -0.35318,0.52388l-0.01846,0.03679c-0.03323,0.06216 -0.06522,0.12812 -0.09845,0.19281l0,0zm2.02064,1.99533c0.00492,0.05328 0.00861,0.11163 0.01354,0.18012c0.00246,0.0444 0.00615,0.09387 0.00984,0.14714c0.33841,-0.05454 0.50332,-0.07865 0.63499,0.04947c0.1206,0.11797 0.11937,0.28414 0.11691,0.6076l0,0.0685c0.33103,-0.01903 0.5107,0.0444 0.60669,0.15095c0.15629,-0.00254 0.31257,-0.00634 0.47132,-0.00634c0.35441,-0.00127 0.70636,0.01649 1.05832,0.03552l0.02707,0.00127l0.00246,0c0.26212,0.00381 0.47624,0.00254 0.61407,-0.05074c0.09968,-0.03805 0.15998,-0.12051 0.17475,-0.28668c0.01723,-0.20169 -0.01969,-0.40211 -0.09106,-0.59111c-0.08737,-0.22833 -0.2252,-0.4427 -0.38149,-0.62663c-0.12921,-0.15222 -0.27688,-0.28795 -0.43686,-0.39957c-0.15506,-0.10782 -0.32242,-0.19408 -0.49839,-0.2537c-0.63253,-0.21437 -1.34135,0.04313 -1.85697,0.46807c-0.18705,0.15222 -0.34457,0.326 -0.46517,0.50613l0,0zm-1.32043,-2.22112c-0.02707,-0.0444 -0.09106,-0.05328 -0.14521,-0.01903c-0.05415,0.03425 -0.07507,0.09767 -0.04922,0.14207c0.02707,0.0444 0.09229,0.05328 0.14521,0.01903c0.05415,-0.03425 0.0763,-0.09767 0.04922,-0.14207l0,0zm0.4344,0.21437c-0.02707,-0.0444 -0.09106,-0.05328 -0.14521,-0.01903c-0.05415,0.03425 -0.07507,0.09767 -0.04922,0.14207c0.02707,0.0444 0.09229,0.05328 0.14521,0.01903c0.05415,-0.03425 0.0763,-0.09767 0.04922,-0.14207l0,0zm1.2146,-1.47652c0.19074,-0.20042 0.38272,-0.39196 0.57469,-0.58223c0.1329,-0.13192 0.26704,-0.26511 0.39625,-0.39704c0.23751,-0.24228 0.47132,-0.5112 0.70636,-0.78012l0.02092,-0.0241c0.00369,-0.00381 0.00738,-0.00888 0.01108,-0.01268c0.21043,-0.22325 0.38764,-0.40338 0.58084,-0.49344c0.23258,-0.10909 0.45655,-0.09006 0.71129,0.12939c0.19936,0.17125 0.34334,0.38816 0.44425,0.62536c0.11445,0.26892 0.17228,0.56448 0.19074,0.84862c0.01477,0.23467 0.00123,0.47061 -0.04061,0.69894c-0.04184,0.22452 -0.11198,0.44143 -0.2092,0.64312c-0.16244,0.33234 -0.41102,0.59619 -0.70636,0.79534c-0.38272,0.2575 -0.84296,0.40465 -1.28721,0.44524c-0.44917,0.04059 -0.88603,-0.02664 -1.21829,-0.19915c-0.19197,-0.10021 -0.35072,-0.23594 -0.45901,-0.40592c-0.37656,-0.59492 -0.09229,-0.89301 0.25843,-1.26214l0.02584,-0.02918l0,0zm0.83312,-0.30697c-0.19074,0.189 -0.38149,0.37928 -0.56731,0.57462l-0.02584,0.02791c-0.23628,0.24735 -0.42579,0.44778 -0.21166,0.78519c0.07014,0.11163 0.17967,0.20296 0.31503,0.27272c0.2695,0.13953 0.63622,0.19408 1.01894,0.15856c0.38764,-0.03552 0.78758,-0.16237 1.11615,-0.38308c0.24243,-0.16363 0.44671,-0.37801 0.57715,-0.64566c0.08245,-0.16871 0.14029,-0.35137 0.17598,-0.54291c0.03692,-0.19662 0.04799,-0.39957 0.03446,-0.60126c-0.016,-0.24482 -0.06522,-0.49725 -0.15998,-0.72177c-0.07876,-0.18647 -0.19074,-0.35518 -0.34088,-0.48456c-0.12429,-0.10655 -0.22397,-0.12051 -0.31996,-0.07484c-0.1329,0.06216 -0.2855,0.21818 -0.46886,0.41226l-0.00123,0.00127l-0.02092,0.0241c-0.23504,0.26892 -0.47009,0.53784 -0.7199,0.79534c-0.13537,0.137 -0.26827,0.26892 -0.40118,0.40211l0,0zm0.56115,3.54288c0.02092,0.01395 0.02584,0.04693 0.00984,0.07357c-0.016,0.02664 -0.04676,0.03805 -0.06768,0.0241c-0.02092,-0.01395 -0.02584,-0.04693 -0.00984,-0.07357c0.016,-0.02664 0.04676,-0.03679 0.06768,-0.0241l0,0zm-0.17598,0.5556c0.04184,0.02664 0.05045,0.09133 0.01846,0.14461c-0.032,0.05328 -0.09106,0.07484 -0.1329,0.0482c-0.04184,-0.02664 -0.05045,-0.09133 -0.01846,-0.14461c0.032,-0.05328 0.09106,-0.07484 0.1329,-0.0482l0,0zm0.95002,0.26511c0.04184,0.02664 0.05045,0.09133 0.01846,0.14461c-0.032,0.05328 -0.09106,0.07484 -0.1329,0.0482c-0.04184,-0.02664 -0.05045,-0.09133 -0.01846,-0.14461c0.032,-0.05201 0.09106,-0.07357 0.1329,-0.0482l0,0zm0.43563,-0.41226c0.04307,0.02791 0.05169,0.09387 0.01846,0.14968c-0.03323,0.05581 -0.09476,0.07738 -0.13783,0.05074c-0.04307,-0.02791 -0.05169,-0.09387 -0.01846,-0.14968c0.03323,-0.05581 0.09476,-0.07865 0.13783,-0.05074l0,0zm-0.20797,-0.44778c0.04307,0.02791 0.05169,0.09387 0.01846,0.14968c-0.03323,0.05454 -0.09476,0.07738 -0.13783,0.04947c-0.04307,-0.02791 -0.05169,-0.09387 -0.01846,-0.14968c0.03323,-0.05454 0.09476,-0.07738 0.13783,-0.04947l0,0zm-0.52547,0.33615c0.05784,0.03679 0.06891,0.12558 0.02461,0.19915c-0.0443,0.07357 -0.12552,0.10275 -0.18336,0.06723c-0.05784,-0.03679 -0.06891,-0.12558 -0.02461,-0.19915c0.0443,-0.07484 0.12675,-0.10402 0.18336,-0.06723l0,0zm-0.23381,-4.2786c0.02092,0.01395 0.02584,0.04693 0.00861,0.07357c-0.016,0.02664 -0.04676,0.03805 -0.06768,0.02537c-0.02092,-0.01395 -0.02584,-0.04693 -0.00984,-0.07357c0.016,-0.02791 0.04676,-0.03805 0.06891,-0.02537l0,0zm-0.17721,0.5556c0.04184,0.02664 0.05045,0.09133 0.01846,0.14461c-0.032,0.05328 -0.09106,0.07484 -0.1329,0.0482c-0.04184,-0.02664 -0.04922,-0.09133 -0.01846,-0.14461c0.032,-0.05328 0.09106,-0.07484 0.1329,-0.0482l0,0zm0.95002,0.26638c0.04184,0.02664 0.04922,0.09133 0.01846,0.14461c-0.032,0.05328 -0.09106,0.07484 -0.1329,0.0482c-0.04184,-0.02664 -0.05045,-0.09133 -0.01846,-0.14461c0.032,-0.05328 0.09106,-0.07484 0.1329,-0.0482l0,0zm0.43563,-0.41353c0.04307,0.02791 0.05169,0.09387 0.01846,0.14968c-0.03323,0.05581 -0.09476,0.07738 -0.13783,0.05074c-0.04307,-0.02791 -0.05169,-0.09514 -0.01846,-0.14968c0.03323,-0.05581 0.09476,-0.07865 0.13783,-0.05074l0,0zm-0.20674,-0.44778c0.04307,0.02791 0.05169,0.09387 0.01846,0.14968c-0.03323,0.05581 -0.09476,0.07738 -0.13783,0.05074c-0.04307,-0.02791 -0.05169,-0.09387 -0.01846,-0.14968c0.032,-0.05581 0.09353,-0.07738 0.13783,-0.05074l0,0zm-11.51718,7.50436c0.93403,0.80041 1.78191,1.59195 2.5941,2.42534c0.81343,0.83466 1.5887,1.70865 2.37629,2.67524c0.86019,-0.76997 1.70069,-1.57419 2.51165,-2.40885c0.7519,-0.77504 1.47672,-1.57546 2.16832,-2.39997c-0.93526,-0.82959 -1.79668,-1.65537 -2.61379,-2.50399c-0.81835,-0.84862 -1.58993,-1.7188 -2.34675,-2.63718c-0.84911,0.74333 -1.66254,1.52218 -2.44274,2.33148c-0.77897,0.80803 -1.52594,1.64776 -2.24708,2.51794l0,0zm4.68858,5.35047c-0.78389,-0.96024 -1.55302,-1.82789 -2.3566,-2.65367c-0.80235,-0.82325 -1.64285,-1.60717 -2.57318,-2.40378c-0.22151,0.27146 -0.44055,0.54672 -0.65837,0.82452l0.73959,0.35137l0,0c0.05538,0.02537 0.09599,0.07865 0.10583,0.14461c0.01846,0.12304 0.02338,0.15856 0.0283,0.189c0.0283,0.20042 0.04184,0.29302 0.04799,0.29809c0.00738,0.00634 0.08245,0.00507 0.22274,0.00254c0.09353,-0.00127 0.20797,-0.00381 0.34949,0c0.00738,0 0.016,0 0.02461,0c0.10214,0.00888 0.17967,0.10021 0.17105,0.20676c-0.00738,0.08753 -0.01723,0.19281 -0.02584,0.2816c-0.01723,0.18393 -0.04799,0.25116 -0.03692,0.26131c0.00861,0.00761 0.07261,-0.01268 0.22766,-0.02283c0.09599,-0.00634 0.21412,-0.01395 0.37041,-0.01776l0,0l0,0c0.00246,0 0.00615,0 0.00861,0c0.10214,0.00254 0.18336,0.09006 0.1809,0.19535c-0.00369,0.12685 -0.00738,0.22198 -0.01108,0.30444c-0.00861,0.18647 -0.01354,0.27653 -0.01108,0.27907c0.00246,0.00381 0.08737,0.00888 0.25227,0.0203c0.0886,0.00634 0.1969,0.01395 0.33841,0.02791c0.00615,0 0.01354,0.00127 0.01969,0.00127c0.10214,0.01522 0.17228,0.1129 0.15752,0.21818l-0.0283,0.19154c-0.03446,0.23086 -0.05169,0.34376 -0.05169,0.34376c0.00369,0.00507 0.11198,0.00381 0.31873,0.00254c0.07753,0 0.16613,-0.00127 0.26827,0c0.00984,0 0.01969,0 0.0283,0.00127c0.10214,0.01395 0.17351,0.11036 0.15998,0.21437c-0.05292,0.41479 -0.01846,0.50486 0.03692,0.51247c0.032,0.00381 0.07999,-0.00127 0.12798,-0.00634c0.07384,-0.00761 0.14767,-0.01522 0.2252,0c0.22274,0.04186 0.37041,0.20423 0.28919,0.76617l0.21289,0.18647c0.28427,-0.23594 0.56361,-0.47568 0.8405,-0.7205l0,0zm1.19737,-6.31706c0.58946,0.6076 0.58946,1.59449 0,2.20209c-0.58946,0.6076 -1.54686,0.6076 -2.13632,0c-0.58946,-0.6076 -0.58946,-1.59449 0,-2.20209c0.59069,-0.60887 1.54686,-0.60887 2.13632,0l0,0zm-0.91187,-4.12892c0.75067,0.91204 1.5161,1.77334 2.3246,2.61308c0.80973,0.84101 1.665,1.66045 2.59164,2.48243c0.23381,-0.28414 0.46394,-0.57209 0.68914,-0.8613l-0.1809,-0.22072c-0.54639,0.08372 -0.70267,-0.0685 -0.74328,-0.29809c-0.01477,-0.07991 -0.00738,-0.15602 0,-0.23213c0.00492,-0.04947 0.00984,-0.09894 0.00615,-0.13192c-0.00738,-0.05581 -0.09476,-0.09133 -0.49716,-0.03805l0,0c-0.00738,0.00127 -0.01477,0.00127 -0.02215,0.00127c-0.10214,0.00127 -0.18582,-0.08372 -0.18705,-0.19027c-0.00123,-0.10782 0,-0.20042 0,-0.28287c0.00123,-0.21437 0.00246,-0.32473 -0.00246,-0.32854c0,0 -0.10952,0.01649 -0.33349,0.05328l-0.18582,0.02918l0,0c-0.00246,0 -0.00615,0.00127 -0.00861,0.00127c-0.10214,0.01015 -0.1932,-0.06596 -0.20305,-0.17125c-0.01477,-0.15222 -0.02215,-0.26638 -0.0283,-0.36025c-0.01108,-0.16998 -0.01723,-0.25623 -0.01969,-0.26004c-0.00246,-0.00254 -0.09106,0.00254 -0.27073,0.01142c-0.07876,0.00381 -0.17105,0.00888 -0.29411,0.01142l-0.00123,0l0,0c-0.00246,0 -0.00615,0 -0.00861,0c-0.10214,-0.00254 -0.18336,-0.09006 -0.1809,-0.19535c0.00369,-0.16237 0.01108,-0.28414 0.01723,-0.38308c0.00984,-0.15983 0.02953,-0.22706 0.02215,-0.23467c-0.01108,-0.01142 -0.07507,0.0203 -0.2535,0.03805c-0.08737,0.00888 -0.18828,0.01903 -0.27319,0.02664l0,0c-0.00369,0 -0.00615,0 -0.00984,0c-0.10214,0.00254 -0.18705,-0.08118 -0.18951,-0.18647c-0.00369,-0.15349 -0.00123,-0.27653 0,-0.37547c0.00246,-0.14334 0.00369,-0.22072 -0.00246,-0.2296c-0.00492,-0.00634 -0.09476,-0.0203 -0.28919,-0.04947c-0.0283,-0.00381 -0.06276,-0.01015 -0.17844,-0.02791c-0.06153,-0.00888 -0.11691,-0.0482 -0.14521,-0.11036l-0.34088,-0.7649c-0.27319,0.21818 -0.539,0.4389 -0.80112,0.66469l0,0z"/>
  </g>
 </g>
</svg>